# xmcd CD database file
#
# Track frame offsets:
#	150
#	14767
#	28045
#	38832
#	49927
#	59005
#	71005
#	82900
#	92325
#	106207
#
# Disc length: 1566 seconds
#
# Revision: 0
# Processed by: cddbd v1.4PL0 Copyright (c) Steve Scherf et al.
# Submitted via: CDex 1.51
#
DISCID=7f061c0a
DTITLE=Oty Jimenez y su Conjunto - Por cuanto Me lo Das - Cumbias
DYEAR=1900
DGENRE=Salsa
TTITLE0=Por cuanto Me lo Das
TTITLE1=Cumbia del Sol
TTITLE2=Cumbia del Monte
TTITLE3=El Pescador
TTITLE4=Cumbia Lucila
TTITLE5=Soledad
TTITLE6=El Pollerón
TTITLE7=Prende la Vela
TTITLE8=Cumbia sobre el Mar
TTITLE9=Noche de Cumbiamba
EXTD=
EXTT0=
EXTT1=
EXTT2=
EXTT3=
EXTT4=
EXTT5=
EXTT6=
EXTT7=
EXTT8=
EXTT9=
PLAYORDER=
